HIERARCHY
ROOT Hips
{
	OFFSET 0.00000 0.00000 0.00000
	CHANNELS 6 Xposition Yposition Zposition Zrotation Yrotation Xrotation 
	JOINT LHipJoint
	{
		OFFSET 0 0 0
		CHANNELS 3 Zrotation Yrotation Xrotation
		JOINT LeftHip
		{
			OFFSET 1.74857 -1.85566 0.69197
			CHANNELS 3 Zrotation Yrotation Xrotation
			JOINT LeftKnee
			{
				OFFSET 2.40003 -6.59403 0.00000
				CHANNELS 3 Zrotation Yrotation Xrotation
				JOINT LeftAnkle
				{
					OFFSET 2.82169 -7.75254 0.00000
					CHANNELS 3 Zrotation Yrotation Xrotation
					JOINT LeftToe
					{
						OFFSET 0.16466 -0.45240 2.26890
						CHANNELS 3 Zrotation Yrotation Xrotation
						End Site
						{
							OFFSET 0.00000 -0.00000 1.16486
						}
					}
				}
			}
		}
	}
	JOINT RHipJoint
	{
		OFFSET 0 0 0
		CHANNELS 3 Zrotation Yrotation Xrotation
		JOINT RightHip
		{
			OFFSET -1.64169 -1.85566 0.69197
			CHANNELS 3 Zrotation Yrotation Xrotation
			JOINT RightKnee
			{
				OFFSET -2.41814 -6.64379 0.00000
				CHANNELS 3 Zrotation Yrotation Xrotation
				JOINT RightAnkle
				{
					OFFSET -2.80588 -7.70911 0.00000
					CHANNELS 3 Zrotation Yrotation Xrotation
					JOINT RightToe
					{
						OFFSET -0.19098 -0.52472 2.25401
						CHANNELS 3 Zrotation Yrotation Xrotation
						End Site
						{
							OFFSET -0.00000 -0.00000 1.16333
						}
					}
				}
			}
		}
	}
	JOINT lowerback
	{
		OFFSET 0 0 0
		CHANNELS 3 Zrotation Yrotation Xrotation
		JOINT Chest
		{
			OFFSET -0.02828 2.14690 -0.11061
			CHANNELS 3 Zrotation Yrotation Xrotation
			JOINT Chest2
			{
				OFFSET -0.00167 2.15299 0.00759
				CHANNELS 3 Zrotation Yrotation Xrotation
				JOINT lowerneck
				{
					OFFSET 0 0 0
					CHANNELS 3 Zrotation Yrotation Xrotation
					JOINT Neck
					{
						OFFSET -0.09296 1.90118 0.07197
						CHANNELS 3 Zrotation Yrotation Xrotation
						JOINT Head
						{
							OFFSET 0.08490 1.89526 -0.24604
							CHANNELS 3 Zrotation Yrotation Xrotation
							End Site
							{
								OFFSET 0.03186 1.92109 -0.09483
							}
						}
					}
				}
				JOINT LeftCollar
				{
					OFFSET 0 0 0
					CHANNELS 3 Zrotation Yrotation Xrotation
					JOINT LeftShoulder
					{
						OFFSET 3.21569 1.44644 -0.03720
CHANNELS 3 Zrotation Xrotation Yrotation
						JOINT LeftElbow
						{
OFFSET 0 -5.476510 -0.000000
CHANNELS 3 Zrotation Xrotation Yrotation
							JOINT LeftWrist
							{
OFFSET 0 -3.090580 -0.000000
CHANNELS 3 Zrotation Xrotation Yrotation
								JOINT lhand
								{
									OFFSET 0 0 0
CHANNELS 3 Zrotation Xrotation Yrotation
									JOINT LFingers
									{
OFFSET 0 -0.771610 -0.000000
CHANNELS 3 Zrotation Xrotation Yrotation
										End Site
										{
OFFSET 0 -0.622090 -0.000000
										}
									}
								}
								JOINT LThumb
								{
OFFSET 0 0.000000 0.000000
CHANNELS 3 Zrotation Xrotation Yrotation
									End Site
									{
OFFSET 0 -0.631590 0.631590
									}
								}
							}
						}
					}
				}
				JOINT RightCollar
				{
					OFFSET 0 0 0
					CHANNELS 3 Zrotation Yrotation Xrotation
					JOINT RightShoulder
					{
						OFFSET -3.38693 1.28904 -0.07093
CHANNELS 3 Zrotation Xrotation Yrotation
						JOINT RightElbow
						{
OFFSET 0 -5.141820 -0.000000
CHANNELS 3 Zrotation Xrotation Yrotation
							JOINT RightWrist
							{
OFFSET 0 -3.355650 -0.000000
CHANNELS 3 Zrotation Xrotation Yrotation
								JOINT rhand
								{
									OFFSET 0 0 0
CHANNELS 3 Zrotation Xrotation Yrotation
									JOINT RFingers
									{
OFFSET 0 -0.801040 -0.000000
CHANNELS 3 Zrotation Xrotation Yrotation
										End Site
										{
OFFSET 0 -0.645820 -0.000000
										}
									}
								}
								JOINT RThumb
								{
OFFSET 0 0.000000 0.000000
CHANNELS 3 Zrotation Xrotation Yrotation
									End Site
									{
OFFSET 0 -0.655680 0.655680
									}
								}
							}
						}
					}
				}
			}
		}
	}
}
MOTION
Frames: 6
Frame Time: 0.008333333333333333
-0.668600 18.158800 -0.160100 1.246000 -5.608700 1.714900 0.000000 0.000000 0.000000 -18.080700 -2.740900 0.222500 0.406400 4.092700 11.337500 0.012000 14.137100 -20.218700 0.724900 -5.440200 -15.168500 0.000000 0.000000 0.000000 20.326500 4.772700 -4.310900 -0.911200 -6.082500 17.024000 0.025600 -13.476900 -18.849200 -0.193400 2.832300 -7.812100 -0.678300 2.544600 2.424800 -0.383400 3.394200 4.006700 -0.014500 1.681700 2.741400 -5.811200 -6.353600 -5.427300 4.864000 -9.027800 21.328900 1.786500 -4.323200 7.956500 0.000000 0.000000 0.000000 15.129900 14.951900 -58.009900 57.133600 -55.496400 31.967200 9.754300 -31.139500 -36.925000 0.000000 0.000000 0.000000 -7.125000 0.000000 0.000000 -30.989200 64.719900 15.479800 0.000000 0.000000 0.000000 -10.788100 15.407100 50.123700 -47.218700 -51.810200 -23.970200 -8.043800 -42.540600 -2.219500 0.000000 0.000000 0.000000 7.125000 0.000000 -0.000000 14.179700 27.638800 6.159600
-0.666531 18.157733 -0.140795 1.268602 -5.713700 1.713663 0.000000 0.000000 0.000000 -18.126977 -2.650844 0.348123 0.398440 4.052731 11.225121 0.032060 14.092114 -20.378844 0.681227 -5.276749 -14.699801 0.000000 0.000000 0.000000 20.308159 4.905346 -4.248796 -0.919998 -6.111159 17.107311 0.019681 -13.494910 -18.946205 -0.197552 2.861862 -7.894443 -0.726402 2.559317 2.502006 -0.356310 3.411611 3.974283 0.035108 1.688989 2.659966 -5.532873 -6.285390 -5.211878 4.576710 -8.899616 20.965922 1.669844 -4.273827 7.762466 0.000000 0.000000 0.000000 14.918150 15.067962 -57.712542 57.012296 -55.459732 31.867297 10.169535 -30.986692 -36.195655 0.000000 0.000000 0.000000 -7.125000 0.000000 0.000000 -29.672934 64.219003 14.426868 0.000000 0.000000 0.000000 -10.635128 15.566623 49.924742 -47.359681 -51.873492 -24.081085 -8.323376 -42.228724 -1.806846 0.000000 0.000000 0.000000 7.125000 0.000000 0.000000 14.020891 28.045222 5.947500
-0.663134 18.160666 -0.128962 1.233835 -5.682199 1.783616 0.000000 0.000000 0.000000 -18.118325 -2.773562 0.250012 0.409642 4.108541 11.382217 0.041626 14.124152 -20.527349 0.694639 -5.327763 -14.845836 0.000000 0.000000 0.000000 20.332617 4.906899 -4.277399 -0.918895 -6.107618 17.096921 0.020354 -13.510911 -18.960997 -0.183456 2.758804 -7.607841 -0.638641 2.554713 2.505131 -0.359497 3.406017 3.975484 -0.017028 1.688708 2.664766 -5.140305 -6.264058 -5.135098 4.199386 -8.832837 20.732180 1.494550 -4.248289 7.631532 0.000000 0.000000 0.000000 14.659381 15.269425 -57.618236 57.006136 -55.457891 31.862208 11.220084 -31.410388 -36.513437 0.000000 0.000000 0.000000 -7.125000 0.000000 0.000000 -28.930438 64.777920 14.405170 0.000000 0.000000 0.000000 -10.421445 15.565464 49.622263 -47.352850 -51.870441 -24.075713 -8.736229 -42.075497 -2.066948 0.000000 0.000000 0.000000 7.125000 0.000000 0.000000 13.676717 27.792887 5.877503
-0.659198 18.158705 -0.112689 1.207492 -5.648317 1.735722 0.000000 0.000000 0.000000 -18.121186 -2.817285 0.347485 0.416105 4.140626 11.472773 0.065184 14.106872 -20.759064 0.706352 -5.371656 -14.971798 0.000000 0.000000 0.000000 20.359594 4.884589 -4.086800 -0.908294 -6.073281 16.997146 0.024978 -13.578339 -19.001231 -0.186787 2.783706 -7.677039 -0.606598 2.551217 2.511646 -0.330908 3.401224 4.008907 -0.004917 1.686618 2.695750 -5.415718 -6.169096 -5.093347 4.487915 -8.727620 20.735191 1.643994 -4.194905 7.645320 0.000000 0.000000 0.000000 14.124620 15.506275 -56.275846 56.737765 -55.375997 31.641225 9.655543 -29.160939 -36.206104 0.000000 0.000000 0.000000 -7.125000 0.000000 0.000000 -30.221909 64.090014 14.623062 0.000000 0.000000 0.000000 -10.112348 15.752102 49.052252 -47.482306 -51.928236 -24.177541 -9.224313 -41.010587 -2.393019 0.000000 0.000000 0.000000 7.125000 0.000000 0.000000 13.269637 27.474282 5.796131
-0.655796 18.158801 -0.101725 1.223549 -5.567800 1.797800 0.000000 0.000000 0.000000 -18.144401 -2.814645 0.259832 0.420336 4.161278 11.530764 0.062942 14.008443 -20.601332 0.705931 -5.369973 -14.966855 0.000000 0.000000 0.000000 20.323510 4.796049 -4.184189 -0.914712 -6.094006 17.057448 0.021920 -13.567769 -19.023460 -0.207027 2.929621 -8.082856 -0.514580 2.597454 2.468917 -0.379356 3.465018 4.009291 -0.103508 1.721758 2.728487 -5.682470 -6.190320 -5.201550 4.817066 -8.790360 20.829540 1.784362 -4.213451 7.726953 0.000000 0.000000 0.000000 13.415537 15.701377 -54.867991 56.320385 -55.246883 31.298081 8.905909 -26.595641 -35.924083 0.000000 0.000000 0.000000 -7.125000 0.000000 0.000000 -30.676387 63.651675 14.551242 0.000000 0.000000 0.000000 -9.265928 15.963460 47.195658 -47.975928 -52.145781 -24.566706 -9.284968 -38.437352 -2.569798 0.000000 0.000000 0.000000 7.125000 0.000000 0.000000 13.203755 27.300227 5.821595
-0.655334 18.157231 -0.099661 1.260146 -5.544565 1.793285 0.000000 0.000000 0.000000 -18.174529 -2.787315 0.224224 0.422926 4.173829 11.566095 0.071712 13.937609 -20.600862 0.694333 -5.326489 -14.842219 0.000000 0.000000 0.000000 20.279567 4.803227 -4.206731 -0.919488 -6.109302 17.101900 0.018103 -13.577119 -19.082167 -0.195649 2.848283 -7.856624 -0.565884 2.605312 2.455802 -0.349059 3.475051 4.056494 -0.041936 1.724578 2.779786 -5.668140 -6.119132 -5.089134 4.708133 -8.663024 20.586820 1.763864 -4.165123 7.613585 0.000000 0.000000 0.000000 12.261065 16.053891 -53.096835 56.207591 -55.211661 31.205404 9.022828 -23.551998 -35.566518 0.000000 0.000000 0.000000 -7.125000 0.000000 0.000000 -30.143048 63.382128 14.082476 0.000000 0.000000 0.000000 -8.390344 15.899608 45.382626 -48.718125 -52.465228 -25.154030 -9.574248 -34.211156 -3.002869 0.000000 0.000000 0.000000 7.125000 0.000000 0.000000 12.938114 26.872962 5.832401
